<svg xmlns="http://www.w3.org/2000/svg" viewBox="0 0 180.2 183.06"><defs><style>.cls-1{fill:#f2f2f2;}.cls-2{fill:#e5e5e5;}.cls-3{fill:#2e58a6;}.cls-4{fill:#1c208b;}.cls-5{fill:#ccc;}</style></defs><title>Fichier 1panda</title><g id="Calque_2" data-name="Calque 2"><g id="Calque_1-2" data-name="Calque 1"><g id="Calque_1-2-2" data-name="Calque 1-2"><path class="cls-1" d="M93.52,10a28.18,28.18,0,0,1,3,.44l3.55.59c1.28.22,2.63.63,4.09,1l2.25.55c.76.22,1.54.51,2.34.77a79.63,79.63,0,0,1,22,11.11,93.05,93.05,0,0,1,11.93,10A116.59,116.59,0,0,1,154.09,48a125.59,125.59,0,0,1,18.07,36.75,103.86,103.86,0,0,1,4.17,22.6c.08,2,.26,4,.18,5.94v3l-.24,3c-.09,2-.51,4-.78,6-.17,1-.45,2-.67,2.94l-.35,1.48a14.29,14.29,0,0,1-.46,1.44L173,134l-1.23,2.74a21.53,21.53,0,0,1-1.41,2.64,28.12,28.12,0,0,1-1.6,2.56,61.41,61.41,0,0,1-8,9.48c-1.47,1.48-3.09,2.83-4.69,4.19l-2.51,1.93c-.83.65-1.73,1.22-2.59,1.84-2.17,1.47-4.42,2.84-6.74,4.13l-1.51.84A191,191,0,0,1,101.82,177c-2.24.31-4.48.59-6.74.81-1.13.11-2.26.2-3.39.28s-2.32.14-3.31.17-2.21-.08-3.31-.15-2.26-.16-3.39-.27q-3.39-.32-6.74-.78c-4.47-.62-8.89-1.45-13.23-2.46A121,121,0,0,1,36.86,166a90.82,90.82,0,0,1-11.13-6.39c-.87-.61-1.76-1.18-2.6-1.83l-2.51-1.92c-1.61-1.36-3.22-2.7-4.7-4.18a61,61,0,0,1-8.06-9.45,24.4,24.4,0,0,1-1.61-2.56A18.53,18.53,0,0,1,4.82,137l-1.24-2.7-1-2.86c-.15-.48-.35-.94-.46-1.43l-.35-1.47c-.22-1-.5-1.95-.68-2.94-.28-2-.71-4-.8-6l-.25-3v-3c-.09-2,.08-4,.16-5.94A102.76,102.76,0,0,1,4.3,85.05,125.1,125.1,0,0,1,22.23,48.23a114,114,0,0,1,11.42-13.5,92.6,92.6,0,0,1,11.9-10.1,79.47,79.47,0,0,1,22-11.2c.8-.26,1.58-.55,2.34-.78l2.25-.56c1.46-.34,2.8-.76,4.08-1l3.55-.61a30.13,30.13,0,0,1,3-.45A41.54,41.54,0,0,1,93.52,10Z"/><path class="cls-1" d="M164.73,138.89c3-2.82,1.9-1.92,4.19-5.22a26.71,26.71,0,0,0,1.6-2.47,20.28,20.28,0,0,0,1.41-2.54l1.23-2.64,1-2.76c.15-.46.34-.91.46-1.38l.35-1.42c.22-.95.5-1.88.67-2.84.27-1.93.7-3.82.78-5.76l.24-2.88v-2.89c.08-1.92-.1-3.83-.18-5.72a96.55,96.55,0,0,0-4.17-21.76,119.15,119.15,0,0,0-18.06-35.38,113.25,113.25,0,0,0-11.46-13,93.8,93.8,0,0,0-11.93-9.68,81,81,0,0,0-22-10.7c-.8-.25-1.58-.52-2.34-.74l-2.25-.53c-1.46-.32-2.81-.72-4.09-.93l-3.57-.53a28.31,28.31,0,0,0-3-.42,42.83,42.83,0,0,0-10.85,0,22.74,22.74,0,0,0-3,.43l-3.55.58c-1.28.22-2.63.62-4.08,1L70,9.22c-.76.22-1.54.49-2.34.75a80.7,80.7,0,0,0-22,10.79,92.52,92.52,0,0,0-11.9,9.73,111,111,0,0,0-11.42,13A118.85,118.85,0,0,0,4.43,78.94a95.43,95.43,0,0,0-4.1,21.77c-.08,1.9-.25,3.81-.16,5.72v2.89l.25,2.88c.09,1.94.52,3.83.8,5.76.18,1,.46,1.88.68,2.83l.35,1.42c.11.47.31.92.46,1.38l1,2.76L5,129a18.08,18.08,0,0,0,1.42,2.54A23.37,23.37,0,0,0,8,134a59.45,59.45,0,0,0,8,9.07c1.48,1.42,3.1,2.71,4.7,4l2.51,1.85c.84.63,1.73,1.17,2.6,1.76A92.89,92.89,0,0,0,37,156.85a124.7,124.7,0,0,0,24.84,8.27c4.34,1,8.76,1.77,13.23,2.37q3.36.45,6.74.75c1.12.1,2.25.19,3.39.26s2.32.12,3.31.15,2.21-.08,3.31-.16,2.26-.16,3.39-.27c2.26-.21,4.5-.48,6.74-.78,0,0,15.11-.43,35.41-9.23l39.31,20.59-11.93-39.9"/><path class="cls-2" d="M164.73,140.27c3-2.82,1.9-1.92,4.19-5.22a26.71,26.71,0,0,0,1.6-2.47,20.28,20.28,0,0,0,1.41-2.54l1.23-2.64,1-2.76c.15-.46.34-.91.46-1.38l.35-1.42c.22-1,.5-1.88.67-2.84.27-1.93.7-3.82.78-5.76l.24-2.88v-2.89c.08-1.92-.1-3.83-.18-5.72A96.41,96.41,0,0,0,172.28,80a119.15,119.15,0,0,0-18.06-35.38,113.25,113.25,0,0,0-11.46-13A93.34,93.34,0,0,0,130.83,22a81,81,0,0,0-22-10.7c-.8-.25-1.58-.52-2.34-.74L104.25,10c-1.46-.32-2.81-.72-4.09-.93L96.61,8.5q-1.5-.29-3-.42a33.57,33.57,0,0,0-5.39-.34L88.16,170h.34c1,0,2.21-.08,3.31-.16s2.26-.16,3.39-.27c2.26-.21,4.5-.48,6.74-.78,0,0,15.11-.43,35.41-9.23l39.31,20.59Z"/><path class="cls-3" d="M88.27,166.77c-.89,0-1.93-.07-2.89-.14s-2.08-.15-3.24-.25c-2.27-.21-4.47-.47-6.53-.76-4.22-.58-8.52-1.39-12.78-2.38A116.38,116.38,0,0,1,39,155a86.56,86.56,0,0,1-10.46-6l-1-.67c-.51-.34-1-.67-1.42-1l-1.53-1.17-.88-.67-.45-.38c-1.37-1.16-2.67-2.26-3.82-3.41h0a55.63,55.63,0,0,1-7.35-8.58L12,133l-.13-.16a9.2,9.2,0,0,1-.72-1.15l-.48-.82-.32-.53A11.21,11.21,0,0,1,9.67,129l-.05-.14-.06-.14-1.12-2.47-.55-1.64-.3-.89c-.07-.21-.14-.43-.22-.64a2.41,2.41,0,0,1-.11-.33l-.34-1.44c-.09-.39-.18-.77-.28-1.16s-.24-1-.32-1.38c-.09-.64-.19-1.27-.3-1.9a30.11,30.11,0,0,1-.44-3.4v-.22l-.08-1-.15-1.78v-3c0-1.18,0-2.46.08-3.81,0-.52.05-1,.07-1.56A96.75,96.75,0,0,1,9.3,80.92,118.74,118.74,0,0,1,26.4,45.83,108.64,108.64,0,0,1,37.22,33,86.7,86.7,0,0,1,48.4,23.49h0A74.27,74.27,0,0,1,69,13l.93-.32,1.17-.39,1.57-.39.53-.13,1.66-.42c.77-.2,1.5-.39,2.08-.5l3.54-.6.87-.15a15.23,15.23,0,0,1,1.53-.23h.45a38,38,0,0,1,4.89-.32V3.84a43.53,43.53,0,0,0-5.6.38,30.13,30.13,0,0,0-3,.45l-3.55.61c-1.28.22-2.63.64-4.08,1l-2.25.56c-.76.23-1.54.51-2.34.78a79.47,79.47,0,0,0-21.95,11.2,92.6,92.6,0,0,0-11.9,10.1A113.87,113.87,0,0,0,22.23,42.4,125.37,125.37,0,0,0,4.29,79.22a102.76,102.76,0,0,0-4.1,22.61c-.08,2-.25,4-.16,5.94v3l.25,3c.09,2,.52,4,.8,6,.18,1,.46,2,.68,2.94l.35,1.47a13.33,13.33,0,0,0,.46,1.43l1,2.86,1.24,2.74a18.05,18.05,0,0,0,1.42,2.63,24.4,24.4,0,0,0,1.61,2.56,61,61,0,0,0,8.06,9.45c1.48,1.48,3.1,2.81,4.7,4.18L23.11,152c.84.65,1.73,1.21,2.6,1.83a90.82,90.82,0,0,0,11.13,6.39,121.7,121.7,0,0,0,24.84,8.59c4.34,1,8.76,1.84,13.23,2.46q3.36.47,6.74.78l3.39.27c1.13.08,2.23.12,3.2.15Z"/><path class="cls-4" d="M163.25,135l1.42-2.11.13-.16a12.33,12.33,0,0,0,.72-1.15l.48-.82.32-.53q.38-.6.69-1.23l.05-.14.06-.14,1.12-2.47.55-1.64.3-.89c.07-.21.14-.43.22-.64a2.41,2.41,0,0,0,.11-.33l.34-1.44c.09-.39.18-.77.28-1.16s.24-1,.32-1.38c.09-.64.19-1.27.3-1.9a32.59,32.59,0,0,0,.44-3.4v-.22l.08-1,.15-1.78v-3c0-1.18,0-2.46-.08-3.81,0-.52-.05-1-.07-1.56a98,98,0,0,0-3.86-21.22,119.32,119.32,0,0,0-17.09-35.09A111.92,111.92,0,0,0,139.46,33a88.07,88.07,0,0,0-11.18-9.51h0A74.23,74.23,0,0,0,107.63,13l-.93-.32-1.17-.39L104,11.9l-.53-.13-1.66-.42c-.77-.2-1.5-.39-2.08-.5l-3.54-.6-.87-.15c-.51-.1-1-.18-1.53-.23h-.46a44,44,0,0,0-5-.32V3.84A47.64,47.64,0,0,1,94,4.22q1.5.15,3,.45l3.55.61c1.28.22,2.63.64,4.08,1l2.25.56c.76.23,1.54.51,2.34.78a79.75,79.75,0,0,1,22,11.2A93.81,93.81,0,0,1,143,28.89,115.16,115.16,0,0,1,154.44,42.4a125.87,125.87,0,0,1,17.94,36.82,103.94,103.94,0,0,1,4.1,22.61c.08,2,.25,4,.16,5.94v3l-.25,3c-.09,2-.52,4-.8,6-.18,1-.46,2-.68,2.94l-.35,1.47a13.33,13.33,0,0,1-.46,1.43l-1,2.86-1.24,2.74a20.2,20.2,0,0,1-1.42,2.63,28.21,28.21,0,0,1-1.61,2.56l11.37,46.66L134.32,162s-29.78,11.11-46.06,10.43v-5.62s10.69.32,27.53-4.77c16.62-5,13.57-3.48,21.23-7.48l35.33,18Z"/><path class="cls-4" d="M135.51,16.35a74.87,74.87,0,0,1,10,7.75,89.88,89.88,0,0,1,9.61,10.46c1.14,1.48,5.31,8.18,6.4,9.79A21.38,21.38,0,0,0,168,40c8.41-8.17,7.28-24.34-.39-32.55-6.37-6.75-23.88-11.2-32.29-3a21.06,21.06,0,0,0-5.4,8.68C131.76,14.06,133.62,15.13,135.51,16.35Z"/><path class="cls-3" d="M41.62,16.31a73.82,73.82,0,0,0-10,7.78A89.12,89.12,0,0,0,22,34.57c-1.13,1.48-5.29,8.2-6.37,9.8a21.08,21.08,0,0,1-6.43-4.28C.78,32,1.86,15.78,9.51,7.54,15.84.73,33.34-3.77,41.77,4.38A21.23,21.23,0,0,1,47.2,13C45.37,14,43.51,15.08,41.62,16.31Z"/><path class="cls-5" d="M65.91,110c.18-.26.33-.57.52-.9L67,108c.22-.4.41-.84.64-1.31L68,106c.11-.25.21-.51.32-.78a32.69,32.69,0,0,0,2.46-13,37.43,37.43,0,0,0-.54-5.39,31.79,31.79,0,0,0-4.23-11A22.5,22.5,0,0,0,62,71a14.79,14.79,0,0,0-1.25-1l-.66-.47-.7-.41A14.29,14.29,0,0,0,58,68.41c-.25-.11-.52-.19-.78-.28L56.73,68a2.22,2.22,0,0,1-.41-.1l-.82-.19-.85-.09a4.22,4.22,0,0,0-.87,0,6.61,6.61,0,0,0-.89,0,18.12,18.12,0,0,0-3.73.74c-.63.18-1.26.41-1.89.65l-.94.4c-.32.13-.63.29-.94.43-.77.37-1.54.79-2.3,1.23l-.5.29a81,81,0,0,0-11.27,9.47c-.54.58-1.06,1.17-1.58,1.77l-.77.91c-.25.3-.51.63-.72.9a10.22,10.22,0,0,0-.66,1l-.65,1c-.43.67-.84,1.33-1.23,2-.8,1.36-1.53,2.73-2.22,4.12a50.55,50.55,0,0,0-3.3,8.37,32.88,32.88,0,0,0-.93,4.16,10,10,0,0,1-.14,1l-.11,1c0,.67-.08,1.34-.07,2a17.92,17.92,0,0,0,.38,3.79,5.17,5.17,0,0,0,.22.86,5,5,0,0,0,.28.82l.34.79.42.73a2.67,2.67,0,0,0,.22.36l.25.34c.17.22.32.45.5.66a14.08,14.08,0,0,0,1.13,1.19l.6.55.64.49a13.57,13.57,0,0,0,1.33.91A22.38,22.38,0,0,0,31,123.06a31.6,31.6,0,0,0,11.74.87,35.73,35.73,0,0,0,5.31-1,32.7,32.7,0,0,0,4.67-1.72,32,32,0,0,0,7-4.38l.66-.53.59-.54c.38-.35.75-.67,1.06-1l.87-.9c.27-.28.52-.52.71-.76A19.39,19.39,0,0,0,65.91,110Z"/><path class="cls-5" d="M110.88,110c-.18-.26-.33-.57-.52-.9l-.61-1.09c-.22-.4-.41-.84-.64-1.31l-.35-.72c-.11-.25-.21-.51-.32-.78a31.28,31.28,0,0,1-2.16-8,32.2,32.2,0,0,1-.3-5,34.79,34.79,0,0,1,.54-5.39,31.4,31.4,0,0,1,4.23-11,21.92,21.92,0,0,1,4-4.8A12.17,12.17,0,0,1,116,70l.66-.47.7-.41a12.49,12.49,0,0,1,1.46-.74c.25-.11.52-.19.78-.28L120,68a2.22,2.22,0,0,0,.41-.1l.82-.19.85-.09a4.22,4.22,0,0,1,.87,0,6.61,6.61,0,0,1,.89,0,18.39,18.39,0,0,1,3.73.74c.63.18,1.26.41,1.89.65l.94.4c.32.13.63.29.94.43.77.37,1.54.79,2.3,1.23l.5.29a82.17,82.17,0,0,1,11.27,9.47c.53.58,1.06,1.17,1.58,1.77l.77.91c.25.3.51.63.72.9a10.22,10.22,0,0,1,.66,1l.65,1c.42.67.83,1.33,1.23,2,.8,1.36,1.53,2.73,2.22,4.12a52.36,52.36,0,0,1,3.3,8.37,36.77,36.77,0,0,1,.93,4.16,10,10,0,0,0,.14,1l.11,1c0,.67.08,1.34.07,2a19.33,19.33,0,0,1-.38,3.79,8.33,8.33,0,0,1-.22.86,6.1,6.1,0,0,1-.28.82l-.34.79-.42.73a2.67,2.67,0,0,1-.22.36l-.25.34c-.17.22-.32.45-.5.66a15.88,15.88,0,0,1-1.13,1.19l-.6.55-.64.49c-.43.33-.88.63-1.33.91a22.51,22.51,0,0,1-5.77,2.48,31.63,31.63,0,0,1-11.74.87,35.26,35.26,0,0,1-5.31-1,32.26,32.26,0,0,1-4.67-1.72,31.53,31.53,0,0,1-7-4.38l-.66-.53-.59-.54c-.38-.35-.75-.67-1.06-1l-.87-.9c-.27-.28-.52-.52-.71-.76A18.49,18.49,0,0,1,110.88,110Z"/><path class="cls-3" d="M64.84,103.62c.17-.24.32-.53.5-.85l.58-1c.21-.37.39-.79.62-1.23l.33-.68c.11-.24.2-.48.31-.73a31.65,31.65,0,0,0,2.16-7.45A30.57,30.57,0,0,0,69.73,87a33.36,33.36,0,0,0-.37-5,28.32,28.32,0,0,0-3.6-10,19.51,19.51,0,0,0-3.58-4.36A14.59,14.59,0,0,0,61,66.7l-.59-.42-.63-.37a11.53,11.53,0,0,0-1.32-.65c-.23-.1-.47-.16-.71-.25l-.36-.12A1.66,1.66,0,0,1,57,64.8l-.75-.16-.78-.07a5.21,5.21,0,0,0-.79,0,5.32,5.32,0,0,0-.81.06,17.38,17.38,0,0,0-3.43.77c-.58.18-1.16.41-1.74.64l-.87.39c-.29.13-.58.28-.87.43-.71.36-1.42.77-2.13,1.2l-.46.28a80.25,80.25,0,0,0-10.51,9c-.5.55-1,1.11-1.48,1.68l-.72.86-.68.86-.62.9-.62.94c-.4.63-.79,1.27-1.17,1.91-.76,1.28-1.47,2.57-2.12,3.87a49.45,49.45,0,0,0-3.21,7.84,32.28,32.28,0,0,0-.95,3.88c-.05.32-.12.64-.16,1l-.12,1c-.05.62-.11,1.25-.11,1.85a16.46,16.46,0,0,0,.25,3.5,5.45,5.45,0,0,0,.18.8,4.15,4.15,0,0,0,.23.76l.29.72.37.67a3.54,3.54,0,0,0,.19.33l.22.31c.15.2.28.41.44.6a11.21,11.21,0,0,0,1,1.07l.53.5.58.44a12.44,12.44,0,0,0,1.19.81,19.2,19.2,0,0,0,5.21,2.16,28.15,28.15,0,0,0,10.7.53A33.64,33.64,0,0,0,48.25,116a31.16,31.16,0,0,0,4.31-1.71,31.54,31.54,0,0,0,6.5-4.23l.61-.51.55-.52c.35-.34.7-.64,1-.94l.82-.86c.25-.26.48-.49.67-.72A18.89,18.89,0,0,0,64.84,103.62Z"/><ellipse class="cls-5" cx="53.78" cy="87.35" rx="9.96" ry="13.2"/><path class="cls-4" d="M111.44,103.62c-.17-.24-.32-.53-.5-.85l-.58-1c-.21-.37-.39-.79-.62-1.23l-.33-.68c-.11-.24-.2-.48-.31-.73a30.73,30.73,0,0,1-2.16-7.45,29.8,29.8,0,0,1-.39-4.62,30.92,30.92,0,0,1,.37-5A27.85,27.85,0,0,1,110.52,72a19,19,0,0,1,3.58-4.36,12.25,12.25,0,0,1,1.12-.9l.59-.42.63-.37a10.11,10.11,0,0,1,1.32-.65c.23-.1.47-.16.71-.25l.36-.12a1.66,1.66,0,0,0,.37-.09l.75-.16.78-.07a5.21,5.21,0,0,1,.79,0,5.52,5.52,0,0,1,.81.06,17.71,17.71,0,0,1,3.43.77c.58.18,1.16.41,1.74.64l.87.39c.29.13.58.28.87.43.71.36,1.42.77,2.13,1.2l.46.28a81.58,81.58,0,0,1,10.51,9.05c.5.55,1,1.11,1.48,1.68l.72.86.68.86.62.9.62.94c.4.63.79,1.27,1.17,1.91.76,1.28,1.47,2.57,2.12,3.87a50.77,50.77,0,0,1,3.26,7.8,36.58,36.58,0,0,1,1,3.88c0,.32.12.64.16,1l.12,1c0,.62.11,1.25.11,1.85a17.88,17.88,0,0,1-.25,3.5c0,.27-.11.54-.18.8a6.65,6.65,0,0,1-.23.76l-.29.72-.37.67a3.54,3.54,0,0,1-.19.33l-.22.31c-.15.2-.28.41-.44.6a14.53,14.53,0,0,1-1,1.07l-.53.5-.58.44c-.39.29-.78.56-1.19.81a19.33,19.33,0,0,1-5.21,2.16,28.16,28.16,0,0,1-10.7.53,33.6,33.6,0,0,1-5-1.13,30.2,30.2,0,0,1-4.31-1.71,31,31,0,0,1-6.5-4.23l-.61-.51L116,109c-.35-.34-.7-.64-1-.94l-.82-.86c-.25-.26-.48-.49-.67-.72A18.16,18.16,0,0,1,111.44,103.62Z"/><ellipse class="cls-1" cx="122.34" cy="85.6" rx="9.96" ry="13.2"/><path class="cls-5" d="M73.09,112.25S76.62,128,88.4,128s14.83-15.76,14.83-15.76Z"/><path class="cls-5" d="M69,128.69s6.58,14.57,19.2,14.57,19.2-14.57,19.2-14.57S95,138,88.4,138,69,128.69,69,128.69Z"/><path class="cls-4" d="M107.36,128.69c-.2-.21-1.59,1.05-4.16,2.31-1.27.59-8.65,4.8-10.38,4.81-3.69,0-3.6-4.82-3.6-4.82v-1.64l-.06-3.11c0-.8,0-1.57-.07-2.3h.51a1.74,1.74,0,0,0,.49,0l.59-.07.68-.12.37-.07.39-.09a16.15,16.15,0,0,0,3.63-1.34,16.36,16.36,0,0,0,2-1.21,17.09,17.09,0,0,0,1.89-1.61,14,14,0,0,0,3-4.4,9.32,9.32,0,0,0,.68-2.7c0-.24,0-.48,0-.71v-.72c0-.24-.08-.48-.13-.71a1.57,1.57,0,0,0-.11-.35l-.06-.18c0-.06,0-.11-.08-.17l-.16-.34-.2-.33a2.49,2.49,0,0,0-.23-.31l-.27-.31a8.93,8.93,0,0,0-1.33-1.13,8.67,8.67,0,0,0-.78-.5l-.42-.23L99,106a18.28,18.28,0,0,0-1.84-.76,25.39,25.39,0,0,0-4.11-1c-.72-.12-1.45-.22-2.19-.29l-1.12-.09H88.16v35.41h.07c5,0,15.64-7,15.64-7C106.51,130.5,107.54,128.85,107.36,128.69Z"/><path class="cls-3" d="M69,128.69c.2-.21,1.59,1.05,4.16,2.31,1.27.59,8.65,4.8,10.38,4.81,3.69,0,3.6-4.82,3.6-4.82v-1.64l.06-3.11c0-.8,0-1.57.07-2.3h-.51a1.74,1.74,0,0,1-.49,0l-.59-.07L85,123.7l-.37-.07-.39-.09a16,16,0,0,1-3.63-1.34,15,15,0,0,1-2-1.21,16.22,16.22,0,0,1-1.89-1.61,13.66,13.66,0,0,1-3-4.4,9.32,9.32,0,0,1-.68-2.7,4.21,4.21,0,0,1,0-.71v-.72a4.23,4.23,0,0,1,.13-.71,1.57,1.57,0,0,1,.11-.35l.06-.18c0-.06.05-.11.08-.17l.16-.34.2-.33a1.39,1.39,0,0,1,.23-.31,2.61,2.61,0,0,1,.27-.31,8.17,8.17,0,0,1,1.4-1.15,8.67,8.67,0,0,1,.78-.5l.42-.23.43-.22a16.53,16.53,0,0,1,1.84-.76,25.14,25.14,0,0,1,4.11-1c.72-.12,1.45-.22,2.19-.29l1.12-.09h1.59v35.41H88.1c-4.95,0-15.64-7-15.64-7C69.82,130.5,68.78,128.85,69,128.69Z"/><ellipse class="cls-1" cx="53.78" cy="85.6" rx="9.96" ry="13.2"/><ellipse class="cls-5" cx="121.34" cy="87.35" rx="9.96" ry="13.2"/><ellipse class="cls-1" cx="121.34" cy="85.6" rx="9.96" ry="13.2"/></g></g></g></svg>