<svg xmlns="http://www.w3.org/2000/svg" viewBox="0 0 154.6 224.13"><defs><style>.cls-1,.cls-2{fill:#fff;}.cls-1{stroke:#000;stroke-width:3px;}.cls-1,.cls-4{stroke-miterlimit:10;}.cls-3{fill:#dd7272;}.cls-4{fill:none;stroke:#0c0c0c;stroke-linecap:round;}</style></defs><title>Fichier 1panda</title><g id="Calque_2" data-name="Calque 2"><g id="Calque_8" data-name="Calque 8"><path d="M41.56,18.51C23.15-7.62,7.18,7.44,7.18,7.44s-19.24,15.32,5.27,39.15c6,5.45,12.26-3.4,12.26-3.4S46.71,25.82,41.56,18.51Z"/><path d="M113,16.89C131.45-9.24,147.42,5.82,147.42,5.82S166.65,21.14,142.14,45c-5.95,5.45-12.25-3.4-12.25-3.4S107.89,24.19,113,16.89Z"/><path class="cls-1" d="M75.49,214.37c-75,10.43-51.12-54.24-51.12-54.24L29,135.28H122l4.59,24.85S150.55,224.8,75.49,214.37Z"/><path d="M134.25,163c-40.51,7.15-26.72-23.83-26.72-23.83l-27.17.44-3,.05-3-.05-27.16-.44S61,170.17,20.46,163s7.48-47.66,7.48-47.66l49.41,12.52,49.41-12.52S174.76,155.87,134.25,163Z"/><path d="M11.76,219.38a6.92,6.92,0,0,1-5.49-7.12c.58-12.28,3.85-39.4,21.78-39.54,18.12-.14,29.91,26.41,34,37.42a6.9,6.9,0,0,1-2.48,8.05c-3.75,2.66-9.68,5.94-16.23,5.94C35.51,224.13,20.06,221.12,11.76,219.38Z"/><path d="M142.77,219.38a6.93,6.93,0,0,0,5.48-7.12c-.57-12.28-3.84-39.4-21.77-39.54-18.12-.14-29.91,26.41-34,37.42A6.91,6.91,0,0,0,95,218.19c3.74,2.66,9.68,5.94,16.23,5.94C119,224.13,134.47,221.12,142.77,219.38Z"/><path class="cls-1" d="M43.92,17.7a1.91,1.91,0,0,1-1,2.79C35.6,22.93,14.1,32.6,11.35,62.42c-3.32,36,1.27,47.49,1.27,47.49S21.05,138,78.75,136.47c54.87-1.46,66.38-24.71,67.33-28.66,0-.14,0,.09.11-.38.86-3.09,9.07-53.72-14.59-75.9-11-10.21-18.38-12-25-13.53S102.49,6.71,94.5,2.76C87.43-.73,86.41,5.4,88.74,9.83,90,12.22,89,13.7,86.57,14.7h0c-1.67.32-5.56,1.85-13.93-11C69.69-.82,57.81,2.17,60.37,7.78a12.33,12.33,0,0,0,4.82,5.07c2.08,1.31.17,4.6-1.93,3.34a4,4,0,0,1-.34-.23C60.37,13.91,46.07,5,42.75,8.55,40.53,10.94,42.42,15.17,43.92,17.7Z"/><path d="M62.19,64.52C57,58.56,48,52.64,33.26,54a20.39,20.39,0,0,0-8.42,2.59C10.12,65.12,13.13,82.34,13.13,82.34s3.07,29.36,40.6,16.08a15.41,15.41,0,0,0,2.38-1C68.45,91.21,71.27,74.93,62.19,64.52Z"/><path d="M93.28,64.52c5.19-6,14.16-11.88,28.93-10.54a20.39,20.39,0,0,1,8.42,2.59c14.72,8.55,11.71,25.77,11.71,25.77s-3.07,29.36-40.6,16.08a15.41,15.41,0,0,1-2.38-1C87,91.21,84.2,74.93,93.28,64.52Z"/><path class="cls-2" d="M40.23,85.83a.78.78,0,0,1-.71-.78C39.8,65.86,59,74.32,54.75,84.58c-.52.74-1.83,1.2-1.81,0s.36-6.09-5-6-6.13,3.81-6,6.53C42,85.79,41,85.87,40.23,85.83Z"/><path class="cls-2" d="M115.92,85.83a.78.78,0,0,0,.71-.78c-.28-19.19-19.44-10.73-15.23-.47.52.74,1.83,1.2,1.81,0s-.37-6.09,5-6,6.13,3.81,6,6.53C114.2,85.79,115.2,85.87,115.92,85.83Z"/><path d="M77.38,90.88s16.37.52,3.39,6.61a7.41,7.41,0,0,1-6.59-.13C70,95.13,67,91.05,77.38,90.88Z"/><path d="M89.42,99.26c.13,4.85-3.51,6.7-5.1,7.46-.32,10-6.06,9.83-6.06,9.83s-5.76.13-6.08-9.83c-1.6-.76-5.24-2.61-5.11-7.46.83-1.06,1.28,0,1.28,0A4.76,4.76,0,0,0,77.22,102v0a1,1,0,0,1,2,0v0a4.77,4.77,0,0,0,8.88-2.75S88.59,98.2,89.42,99.26Z"/><path class="cls-3" d="M75.3,112.34s2.6,5,6.13,0Z"/><line class="cls-4" x1="78.37" y1="108.44" x2="78.37" y2="112.94"/><polygon points="80.37 139.73 77.35 139.68 80.36 139.63 80.37 139.73"/><polygon points="77.35 139.68 74.33 139.73 74.34 139.63 77.35 139.68"/></g></g></svg>